<?xml version="1.0" encoding="UTF-8" standalone="no"?>
<!DOCTYPE svg PUBLIC "-//W3C//DTD SVG 1.1//EN" "http://www.w3.org/Graphics/SVG/1.1/DTD/svg11.dtd">
<svg width="100%" height="100%" viewBox="0 0 8684 1963" version="1.1" xmlns="http://www.w3.org/2000/svg" xmlns:xlink="http://www.w3.org/1999/xlink" xml:space="preserve" xmlns:serif="http://www.serif.com/" style="fill-rule:evenodd;clip-rule:evenodd;stroke-linejoin:round;stroke-miterlimit:2;">
    <g transform="matrix(4.16667,0,0,4.16667,0,0)">
        <g transform="matrix(4.16667,0,0,4.16667,0,0)">
            <g transform="matrix(1,0,0,1,159.916,82.0341)">
                <g>
                    <g>
                        <path d="M0.255,0L1.672,0L2.635,-2.396L7.771,-2.396L8.766,0L10.167,0L5.828,-10.542L4.594,-10.542L0.255,0ZM3.146,-3.63L5.208,-8.687L7.276,-3.63L3.146,-3.63Z" style="fill:rgb(16,25,38);fill-rule:nonzero;"/>
                    </g>
                </g>
            </g>
            <g transform="matrix(1,0,0,1,177.605,82.0341)">
                <g>
                    <g>
                        <rect x="1.536" y="-10.542" width="1.323" height="10.542" style="fill:rgb(16,25,38);"/>
                    </g>
                </g>
            </g>
            <g transform="matrix(1,0,0,1,200.284,82.0341)">
                <g>
                    <g>
                        <path d="M1.536,0L7.984,0L7.984,-1.266L2.859,-1.266L2.859,-10.542L1.536,-10.542L1.536,0Z" style="fill:rgb(16,25,38);fill-rule:nonzero;"/>
                    </g>
                </g>
            </g>
            <g transform="matrix(1,0,0,1,216.002,82.0341)">
                <g>
                    <g>
                        <path d="M1.536,0L8.104,0L8.104,-1.234L2.859,-1.234L2.859,-4.76L7.563,-4.76L7.563,-5.979L2.859,-5.979L2.859,-9.307L7.938,-9.307L7.938,-10.542L1.536,-10.542L1.536,0Z" style="fill:rgb(16,25,38);fill-rule:nonzero;"/>
                    </g>
                </g>
            </g>
            <g transform="matrix(1,0,0,1,232.352,82.0341)">
                <g>
                    <g>
                        <path d="M0.255,0L1.672,0L2.635,-2.396L7.771,-2.396L8.766,0L10.167,0L5.828,-10.542L4.594,-10.542L0.255,0ZM3.146,-3.63L5.208,-8.687L7.276,-3.63L3.146,-3.63Z" style="fill:rgb(16,25,38);fill-rule:nonzero;"/>
                    </g>
                </g>
            </g>
            <g transform="matrix(1,0,0,1,250.042,82.0341)">
                <g>
                    <g>
                        <path d="M1.536,0L5.182,0C8.417,0 10.589,-2.151 10.589,-5.271C10.589,-8.391 8.417,-10.542 5.182,-10.542L1.536,-10.542L1.536,0ZM2.859,-1.266L2.859,-9.276L5.12,-9.276C7.573,-9.276 9.234,-7.667 9.234,-5.271C9.234,-2.875 7.589,-1.266 5.182,-1.266L2.859,-1.266Z" style="fill:rgb(16,25,38);fill-rule:nonzero;"/>
                    </g>
                </g>
            </g>
            <g transform="matrix(1,0,0,1,279.778,82.0341)">
                <g>
                    <g>
                        <path d="M6.234,0.198C9.474,0.198 11.656,-2.26 11.594,-5.724L5.875,-5.724L5.875,-4.458L10.167,-4.458C9.896,-2.469 8.391,-1.13 6.266,-1.13C3.901,-1.13 2.229,-2.833 2.229,-5.271C2.229,-7.708 3.885,-9.411 6.25,-9.411C7.875,-9.411 9.172,-8.615 9.833,-7.26L11.281,-7.26C10.604,-9.339 8.615,-10.74 6.203,-10.74C3.12,-10.74 0.875,-8.432 0.875,-5.271C0.875,-2.094 3.13,0.198 6.234,0.198Z" style="fill:rgb(16,25,38);fill-rule:nonzero;"/>
                    </g>
                </g>
            </g>
            <g transform="matrix(1,0,0,1,299.468,82.0341)">
                <g>
                    <g>
                        <path d="M1.536,0L8.104,0L8.104,-1.234L2.859,-1.234L2.859,-4.76L7.563,-4.76L7.563,-5.979L2.859,-5.979L2.859,-9.307L7.938,-9.307L7.938,-10.542L1.536,-10.542L1.536,0Z" style="fill:rgb(16,25,38);fill-rule:nonzero;"/>
                    </g>
                </g>
            </g>
            <g transform="matrix(1,0,0,1,315.819,82.0341)">
                <g>
                    <g>
                        <path d="M1.536,0L2.844,0L2.844,-8.255L8.677,0L9.911,0L9.911,-10.542L8.615,-10.542L8.615,-2.292L2.786,-10.542L1.536,-10.542L1.536,0Z" style="fill:rgb(16,25,38);fill-rule:nonzero;"/>
                    </g>
                </g>
            </g>
            <g transform="matrix(1,0,0,1,334.531,82.0341)">
                <g>
                    <g>
                        <path d="M1.536,0L8.104,0L8.104,-1.234L2.859,-1.234L2.859,-4.76L7.563,-4.76L7.563,-5.979L2.859,-5.979L2.859,-9.307L7.938,-9.307L7.938,-10.542L1.536,-10.542L1.536,0Z" style="fill:rgb(16,25,38);fill-rule:nonzero;"/>
                    </g>
                </g>
            </g>
            <g transform="matrix(1,0,0,1,350.881,82.0341)">
                <g>
                    <g>
                        <path d="M1.536,0L2.859,0L2.859,-3.781L5.182,-3.781L7.755,0L9.354,0L6.703,-3.917C8.24,-4.292 9.188,-5.453 9.188,-7.151C9.188,-9.245 7.74,-10.542 5.557,-10.542L1.536,-10.542L1.536,0ZM2.859,-5.047L2.859,-9.276L5.406,-9.276C6.943,-9.276 7.833,-8.495 7.833,-7.151C7.833,-5.812 6.943,-5.047 5.406,-5.047L2.859,-5.047Z" style="fill:rgb(16,25,38);fill-rule:nonzero;"/>
                    </g>
                </g>
            </g>
            <g transform="matrix(1,0,0,1,368.405,82.0341)">
                <g>
                    <g>
                        <path d="M0.255,0L1.672,0L2.635,-2.396L7.771,-2.396L8.766,0L10.167,0L5.828,-10.542L4.594,-10.542L0.255,0ZM3.146,-3.63L5.208,-8.687L7.276,-3.63L3.146,-3.63Z" style="fill:rgb(16,25,38);fill-rule:nonzero;"/>
                    </g>
                </g>
            </g>
            <g transform="matrix(1,0,0,1,386.095,82.0341)">
                <g>
                    <g>
                        <path d="M4.083,0L5.406,0L5.406,-9.276L8.958,-9.276L8.958,-10.542L0.51,-10.542L0.51,-9.276L4.083,-9.276L4.083,0Z" style="fill:rgb(16,25,38);fill-rule:nonzero;"/>
                    </g>
                </g>
            </g>
            <g transform="matrix(1,0,0,1,402.851,82.0341)">
                <g>
                    <g>
                        <path d="M6.323,0.198C9.531,0.198 11.792,-2.062 11.792,-5.271C11.792,-8.479 9.531,-10.74 6.323,-10.74C3.12,-10.74 0.875,-8.479 0.875,-5.271C0.875,-2.062 3.12,0.198 6.323,0.198ZM2.229,-5.271C2.229,-7.724 3.901,-9.411 6.323,-9.411C8.75,-9.411 10.422,-7.724 10.422,-5.271C10.422,-2.818 8.75,-1.13 6.323,-1.13C3.901,-1.13 2.229,-2.818 2.229,-5.271Z" style="fill:rgb(16,25,38);fill-rule:nonzero;"/>
                    </g>
                </g>
            </g>
            <g transform="matrix(1,0,0,1,422.767,82.0341)">
                <g>
                    <g>
                        <path d="M1.536,0L2.859,0L2.859,-3.781L5.182,-3.781L7.755,0L9.354,0L6.703,-3.917C8.24,-4.292 9.188,-5.453 9.188,-7.151C9.188,-9.245 7.74,-10.542 5.557,-10.542L1.536,-10.542L1.536,0ZM2.859,-5.047L2.859,-9.276L5.406,-9.276C6.943,-9.276 7.833,-8.495 7.833,-7.151C7.833,-5.812 6.943,-5.047 5.406,-5.047L2.859,-5.047Z" style="fill:rgb(16,25,38);fill-rule:nonzero;"/>
                    </g>
                </g>
            </g>
            <g transform="matrix(1,0,0,1,110.247,56.2084)">
                <g>
                    <g>
                        <path d="M18.214,0.797C25.432,0.797 32.323,-2.135 34.068,-9.135L26.974,-9.651C25.88,-5.625 22.26,-4.531 18.583,-4.531C12.552,-4.531 8.318,-7.818 8.318,-13.406C8.318,-18.859 12.474,-22.057 18.432,-22.057C22.109,-22.057 25.88,-20.979 26.974,-16.911L34.047,-17.469C32.323,-24.448 25.453,-27.385 17.99,-27.385C7.74,-27.385 0.984,-21.76 0.984,-13.219C0.984,-4.75 7.703,0.797 18.214,0.797Z" style="fill:rgb(56,182,255);fill-rule:nonzero;"/>
                    </g>
                </g>
            </g>
            <g transform="matrix(1,0,0,1,155.153,56.2084)">
                <g>
                    <g>
                        <path d="M10.302,0L10.302,-10.974L26.474,-10.974L26.474,0L33.453,0L33.453,-26.583L26.474,-26.583L26.474,-16.172L10.302,-16.172L10.302,-26.583L3.323,-26.583L3.323,0L10.302,0Z" style="fill:rgb(56,182,255);fill-rule:nonzero;"/>
                    </g>
                </g>
            </g>
            <g transform="matrix(1,0,0,1,201.396,56.2084)">
                <g>
                    <g>
                        <path d="M35.531,0L22.167,-26.583L13.682,-26.583L0.354,0L7.609,0L10.026,-5.177L25.599,-5.177L28.016,0L35.531,0ZM17.802,-21.87L23.391,-9.911L12.234,-9.911L17.802,-21.87Z" style="fill:rgb(56,182,255);fill-rule:nonzero;"/>
                    </g>
                </g>
            </g>
            <g transform="matrix(1,0,0,1,246.729,56.2084)">
                <g>
                    <g>
                        <path d="M18.844,0L18.844,-21.255L30.13,-21.255L30.13,-26.583L0.536,-26.583L0.536,-21.255L11.865,-21.255L11.865,0L18.844,0Z" style="fill:rgb(56,182,255);fill-rule:nonzero;"/>
                    </g>
                </g>
            </g>
            <g transform="matrix(1,0,0,1,309.568,56.2084)">
                <g>
                    <g>
                        <path d="M28.422,0L28.422,-5.219L10.302,-5.219L10.302,-26.583L3.323,-26.583L3.323,0L28.422,0Z" style="fill:rgb(56,182,255);fill-rule:nonzero;"/>
                    </g>
                </g>
            </g>
            <g transform="matrix(1,0,0,1,348.553,56.2084)">
                <g>
                    <g>
                        <path d="M29.688,0L29.688,-5.219L10.302,-5.219L10.302,-11.047L26.604,-11.047L26.604,-15.875L10.302,-15.875L10.302,-21.385L29.219,-21.385L29.219,-26.583L3.323,-26.583L3.323,0L29.688,0Z" style="fill:rgb(56,182,255);fill-rule:nonzero;"/>
                    </g>
                </g>
            </g>
            <g transform="matrix(1,0,0,1,389.561,56.2084)">
                <g>
                    <g>
                        <path d="M35.531,0L22.167,-26.583L13.682,-26.583L0.354,0L7.609,0L10.026,-5.177L25.599,-5.177L28.016,0L35.531,0ZM17.802,-21.87L23.391,-9.911L12.234,-9.911L17.802,-21.87Z" style="fill:rgb(56,182,255);fill-rule:nonzero;"/>
                    </g>
                </g>
            </g>
            <g transform="matrix(1,0,0,1,434.894,56.2084)">
                <g>
                    <g>
                        <path d="M16.745,0C27.141,0 35.104,-3.526 35.104,-13.516C35.104,-22.297 27.531,-26.583 17.229,-26.583L3.323,-26.583L3.323,0L16.745,0ZM10.229,-21.37L17.896,-21.37C24.042,-21.37 27.813,-18.604 27.813,-13.219C27.813,-7.854 23.891,-5.219 17.542,-5.219L10.229,-5.219L10.229,-21.37Z" style="fill:rgb(56,182,255);fill-rule:nonzero;"/>
                    </g>
                </g>
            </g>
            <path d="M48.589,15.359C48.984,15.359 49.38,15.323 49.771,15.245C50.161,15.167 50.536,15.052 50.906,14.901C51.271,14.75 51.62,14.563 51.953,14.344C52.281,14.12 52.589,13.87 52.87,13.589C53.151,13.307 53.401,13.005 53.625,12.677C53.844,12.344 54.031,11.995 54.182,11.63C54.333,11.266 54.453,10.885 54.526,10.5C54.604,10.109 54.646,9.714 54.646,9.318C54.646,8.922 54.609,8.531 54.531,8.141C54.453,7.75 54.339,7.375 54.188,7.005C54.036,6.641 53.849,6.292 53.63,5.964C53.406,5.63 53.156,5.328 52.875,5.047C52.594,4.766 52.286,4.516 51.958,4.292C51.63,4.073 51.281,3.885 50.911,3.734C50.547,3.583 50.167,3.469 49.776,3.391C49.385,3.313 48.995,3.271 48.594,3.271C48.198,3.271 47.807,3.307 47.417,3.385C47.026,3.464 46.646,3.578 46.276,3.729C45.911,3.88 45.563,4.068 45.229,4.286C44.901,4.505 44.594,4.755 44.313,5.036C44.031,5.318 43.781,5.62 43.557,5.948C43.339,6.281 43.151,6.625 42.995,6.995C42.844,7.359 42.729,7.734 42.651,8.125C42.573,8.516 42.531,8.906 42.531,9.302C42.531,9.703 42.568,10.094 42.646,10.484C42.724,10.875 42.839,11.25 42.99,11.62C43.146,11.984 43.328,12.333 43.552,12.667C43.771,12.995 44.021,13.302 44.302,13.583C44.583,13.865 44.891,14.115 45.224,14.333C45.552,14.557 45.901,14.745 46.271,14.896C46.635,15.047 47.016,15.161 47.406,15.24C47.797,15.318 48.193,15.359 48.589,15.359Z" style="fill:rgb(249,237,50);fill-opacity:0.78;"/>
            <path d="M77.932,20.021C81.281,23.901 83.396,28.365 84.266,33.411C85.495,40.578 83.62,47.208 84.938,51.667C85.245,52.667 85.656,53.62 86.172,54.531C85.557,54.891 84.922,55.208 84.271,55.495C83.62,55.776 82.958,56.026 82.276,56.234C81.599,56.438 80.906,56.609 80.208,56.74C79.51,56.865 78.807,56.958 78.099,57.005C77.391,57.052 76.677,57.063 75.969,57.026C75.26,56.995 74.552,56.922 73.854,56.807C73.151,56.693 72.458,56.542 71.776,56.349C71.089,56.156 70.422,55.922 69.76,55.656C69.104,55.385 68.464,55.078 67.844,54.734C67.219,54.391 66.62,54.016 66.042,53.604C65.464,53.193 64.911,52.75 64.385,52.271C63.854,51.797 63.354,51.292 62.885,50.76C62.417,50.229 61.979,49.672 61.573,49.089C61.167,48.505 60.797,47.901 60.464,47.276C60.125,46.651 59.828,46.01 59.563,45.354C59.302,44.693 59.078,44.021 58.896,43.339C58.708,42.651 58.563,41.958 58.458,41.255C58.354,40.557 58.292,39.849 58.266,39.141C58.24,38.432 58.26,37.724 58.318,37.021C58.375,36.313 58.474,35.609 58.609,34.917C58.75,34.219 58.927,33.536 59.141,32.859C59.359,32.182 59.615,31.521 59.906,30.875C60.203,30.229 60.531,29.604 60.896,28.995C61.26,28.385 61.661,27.802 62.094,27.24C62.526,26.677 62.99,26.141 63.484,25.63C63.974,25.12 64.5,24.641 65.047,24.193C65.599,23.745 66.172,23.323 66.766,22.943C67.365,22.557 67.984,22.208 68.62,21.896C69.26,21.583 69.911,21.307 70.583,21.068C71.25,20.828 71.932,20.63 72.625,20.469C73.318,20.307 74.016,20.188 74.719,20.109C75.427,20.026 76.135,19.984 76.844,19.99C77.198,19.99 77.563,20 77.932,20.021Z" style="fill:rgb(102,45,145);fill-opacity:0.78;"/>
            <g>
                <path d="M84.63,36.563C85.016,42.5 83.818,47.87 84.938,51.682C86.849,58.193 95.339,64.089 91.375,67.438C90.12,68.443 87.958,68.505 86.693,69.49C84.677,71.063 86.052,72.76 86.234,73.984C86.318,74.568 85.792,75.5 84.047,76.635C85.365,77.604 85.245,78.427 84.771,79.182C83.484,80.063 82.13,80.823 80.708,81.453C79.281,82.089 77.813,82.594 76.297,82.964C74.781,83.333 73.245,83.563 71.688,83.651C70.13,83.745 68.578,83.698 67.031,83.505C65.484,83.318 63.964,82.99 62.474,82.526C60.984,82.063 59.552,81.469 58.172,80.745C56.786,80.026 55.484,79.182 54.255,78.224C53.026,77.266 51.896,76.203 50.859,75.042C49.823,73.875 48.901,72.63 48.094,71.297C47.281,69.969 46.599,68.578 46.042,67.12C45.484,65.667 45.068,64.177 44.781,62.646C44.495,61.115 44.349,59.573 44.344,58.016C44.339,56.458 44.474,54.917 44.75,53.385C45.026,51.854 45.438,50.359 45.979,48.901C46.526,47.443 47.203,46.047 48,44.708C48.802,43.375 49.714,42.12 50.745,40.948C51.771,39.781 52.896,38.708 54.12,37.745C55.339,36.776 56.641,35.927 58.016,35.193C59.391,34.464 60.823,33.859 62.307,33.385C63.797,32.911 65.313,32.573 66.859,32.375C68.406,32.177 69.958,32.115 71.516,32.198C73.073,32.276 74.609,32.5 76.13,32.859C77.646,33.219 79.12,33.708 80.547,34.333C81.974,34.958 83.333,35.708 84.63,36.578L84.63,36.563Z" style="fill:rgb(146,39,143);fill-opacity:0.78;"/>
            </g>
            <g>
                <path d="M79.099,93.505C69.292,97.49 56.156,84.12 54.391,111.38C48.01,107.203 41.25,103.771 34.109,101.083C33.521,100.224 32.99,99.323 32.516,98.396C32.036,97.464 31.62,96.505 31.266,95.526C30.906,94.542 30.615,93.542 30.385,92.521C30.156,91.5 29.99,90.474 29.885,89.432C29.786,88.391 29.75,87.349 29.776,86.307C29.807,85.26 29.901,84.224 30.063,83.188C30.224,82.156 30.448,81.135 30.734,80.13C31.021,79.13 31.37,78.146 31.781,77.182C32.193,76.224 32.661,75.292 33.188,74.385C33.719,73.484 34.297,72.62 34.938,71.792C35.573,70.958 36.255,70.172 36.995,69.427C37.729,68.682 38.505,67.99 39.328,67.344C40.151,66.693 41.01,66.104 41.906,65.563C42.807,65.021 43.734,64.542 44.688,64.12C45.646,63.693 46.63,63.333 47.63,63.031C48.635,62.729 49.651,62.49 50.682,62.318C51.719,62.146 52.755,62.036 53.802,61.99C54.849,61.948 55.896,61.969 56.938,62.052C57.979,62.141 59.016,62.292 60.042,62.505C61.063,62.724 62.073,63 63.063,63.344C64.052,63.682 65.016,64.083 65.958,64.547C66.896,65.01 67.802,65.526 68.677,66.104C69.552,66.677 70.385,67.302 71.182,67.984C71.979,68.661 72.729,69.391 73.432,70.161C74.135,70.938 74.792,71.75 75.391,72.604C75.995,73.458 76.542,74.349 77.031,75.271C77.521,76.193 77.953,77.146 78.328,78.12C78.698,79.099 79.005,80.094 79.255,81.109C79.5,82.125 79.682,83.151 79.802,84.193C79.917,85.229 79.969,86.271 79.958,87.318C79.943,88.359 79.865,89.401 79.724,90.438C79.578,91.474 79.37,92.495 79.099,93.505Z" style="fill:rgb(0,127,198);fill-opacity:0.78;"/>
            </g>
            <g>
                <path d="M64.698,93.641C59.516,93.859 55.333,96.839 54.391,111.38C48.047,107.229 41.328,103.807 34.234,101.13C34.255,100.245 34.344,99.37 34.51,98.5C34.677,97.63 34.911,96.781 35.214,95.948C35.516,95.12 35.885,94.318 36.323,93.547C36.76,92.776 37.255,92.047 37.807,91.359C38.365,90.672 38.969,90.031 39.63,89.438C40.292,88.849 40.995,88.318 41.74,87.839C42.49,87.365 43.271,86.953 44.083,86.604C44.896,86.255 45.734,85.979 46.599,85.766C47.458,85.552 48.328,85.411 49.214,85.344C50.094,85.276 50.979,85.276 51.865,85.354C52.745,85.427 53.615,85.573 54.474,85.792C55.333,86.01 56.172,86.292 56.984,86.646C57.797,87 58.573,87.417 59.318,87.901C60.063,88.38 60.76,88.917 61.417,89.51C62.073,90.104 62.677,90.75 63.224,91.443C63.776,92.135 64.266,92.87 64.698,93.641Z" style="fill:rgb(1,166,230);fill-opacity:0.78;"/>
            </g>
            <path d="M88.401,68.656C87.786,68.839 87.214,69.109 86.693,69.474C84.677,71.047 86.052,72.745 86.234,73.969C86.318,74.552 85.792,75.484 84.047,76.62C86.063,78.104 84.708,79.24 83.896,80.333C80.12,83.047 85.37,88.927 79.146,93.49C72.865,96.068 65.224,91.516 60.068,95.01C59.901,94.068 59.797,93.12 59.75,92.167C59.703,91.214 59.719,90.26 59.792,89.307C59.865,88.354 59.995,87.406 60.188,86.474C60.38,85.536 60.625,84.615 60.932,83.708C61.234,82.802 61.594,81.922 62.01,81.057C62.427,80.198 62.891,79.365 63.411,78.563C63.932,77.76 64.495,76.99 65.109,76.255C65.724,75.526 66.385,74.833 67.083,74.182C67.786,73.526 68.521,72.922 69.297,72.359C70.073,71.802 70.88,71.292 71.719,70.833C72.563,70.37 73.427,69.964 74.313,69.609C75.203,69.26 76.115,68.964 77.042,68.724C77.969,68.479 78.906,68.297 79.854,68.177C80.807,68.052 81.76,67.984 82.719,67.979C83.672,67.974 84.63,68.026 85.578,68.141C86.531,68.25 87.469,68.422 88.401,68.651L88.401,68.656Z" style="fill:rgb(32,99,178);fill-opacity:0.78;"/>
            <path d="M15.443,68.948C16.031,68.948 16.615,68.891 17.193,68.776C17.771,68.661 18.333,68.495 18.875,68.271C19.422,68.042 19.938,67.771 20.427,67.443C20.917,67.115 21.37,66.745 21.786,66.328C22.203,65.911 22.578,65.464 22.906,64.974C23.234,64.484 23.51,63.969 23.734,63.427C23.958,62.88 24.13,62.323 24.245,61.745C24.359,61.167 24.417,60.589 24.417,60C24.417,59.411 24.359,58.828 24.245,58.25C24.13,57.677 23.958,57.115 23.734,56.573C23.51,56.031 23.234,55.516 22.906,55.026C22.578,54.536 22.208,54.083 21.792,53.667C21.375,53.255 20.922,52.88 20.432,52.557C19.943,52.229 19.422,51.953 18.88,51.729C18.333,51.505 17.776,51.333 17.198,51.219C16.62,51.104 16.036,51.047 15.448,51.047C14.854,51.047 14.271,51.104 13.693,51.219C13.115,51.333 12.557,51.505 12.01,51.729C11.469,51.953 10.948,52.229 10.458,52.557C9.969,52.885 9.516,53.255 9.099,53.672C8.682,54.089 8.313,54.536 7.984,55.026C7.656,55.516 7.38,56.031 7.156,56.573C6.932,57.12 6.76,57.677 6.646,58.255C6.531,58.833 6.474,59.411 6.474,60C6.479,60.589 6.536,61.172 6.651,61.745C6.766,62.323 6.938,62.88 7.161,63.422C7.391,63.964 7.667,64.479 7.995,64.969C8.318,65.458 8.693,65.906 9.109,66.323C9.526,66.74 9.974,67.109 10.464,67.438C10.953,67.76 11.469,68.036 12.016,68.26C12.557,68.49 13.12,68.656 13.693,68.776C14.271,68.891 14.854,68.948 15.443,68.948Z" style="fill:rgb(18,188,188);fill-opacity:0.78;"/>
            <path d="M34.234,81.406C34.771,81.411 35.302,81.359 35.828,81.255C36.359,81.151 36.87,81 37.365,80.797C37.865,80.589 38.339,80.339 38.786,80.042C39.234,79.745 39.646,79.411 40.026,79.031C40.406,78.651 40.75,78.24 41.047,77.797C41.349,77.349 41.599,76.88 41.807,76.385C42.016,75.891 42.172,75.38 42.276,74.854C42.385,74.328 42.438,73.797 42.438,73.26C42.438,72.724 42.385,72.193 42.281,71.667C42.177,71.141 42.026,70.63 41.818,70.13C41.615,69.635 41.365,69.167 41.068,68.719C40.766,68.271 40.427,67.859 40.052,67.479C39.672,67.099 39.255,66.76 38.813,66.464C38.365,66.161 37.891,65.911 37.396,65.703C36.901,65.5 36.385,65.344 35.859,65.24C35.333,65.135 34.802,65.078 34.266,65.078C33.724,65.078 33.193,65.13 32.667,65.234C32.141,65.339 31.625,65.495 31.13,65.698C30.63,65.906 30.161,66.156 29.714,66.453C29.266,66.75 28.854,67.089 28.474,67.469C28.094,67.849 27.75,68.26 27.453,68.708C27.156,69.151 26.901,69.625 26.698,70.12C26.49,70.615 26.333,71.125 26.229,71.651C26.125,72.177 26.073,72.708 26.073,73.245C26.073,73.781 26.125,74.307 26.234,74.833C26.339,75.359 26.495,75.865 26.698,76.359C26.901,76.854 27.156,77.323 27.453,77.771C27.75,78.214 28.089,78.625 28.464,79.005C28.844,79.385 29.255,79.724 29.703,80.021C30.146,80.318 30.615,80.568 31.109,80.776C31.604,80.984 32.115,81.141 32.641,81.245C33.167,81.349 33.698,81.406 34.234,81.406Z" style="fill:rgb(0,185,241);fill-opacity:0.78;"/>
            <path d="M14.151,47.167C14.568,47.167 14.974,47.125 15.38,47.047C15.786,46.964 16.177,46.849 16.557,46.688C16.943,46.531 17.302,46.339 17.646,46.109C17.99,45.88 18.307,45.62 18.599,45.328C18.891,45.036 19.151,44.719 19.38,44.38C19.609,44.036 19.802,43.672 19.964,43.292C20.12,42.911 20.24,42.521 20.318,42.115C20.401,41.714 20.438,41.302 20.438,40.891C20.438,40.479 20.401,40.073 20.318,39.667C20.24,39.266 20.12,38.875 19.958,38.495C19.802,38.109 19.609,37.75 19.38,37.406C19.151,37.068 18.891,36.75 18.599,36.458C18.307,36.167 17.99,35.906 17.646,35.677C17.302,35.448 16.938,35.255 16.557,35.099C16.177,34.943 15.781,34.823 15.375,34.74C14.974,34.661 14.563,34.62 14.151,34.62C13.74,34.62 13.328,34.661 12.922,34.745C12.521,34.823 12.125,34.943 11.745,35.099C11.365,35.26 11,35.453 10.656,35.682C10.313,35.911 9.995,36.172 9.703,36.464C9.411,36.75 9.151,37.068 8.922,37.411C8.693,37.755 8.5,38.115 8.344,38.495C8.188,38.88 8.068,39.271 7.984,39.672C7.906,40.078 7.865,40.484 7.865,40.896C7.87,41.307 7.906,41.719 7.99,42.12C8.068,42.526 8.188,42.917 8.349,43.297C8.505,43.677 8.698,44.036 8.927,44.38C9.161,44.719 9.422,45.036 9.714,45.328C10.005,45.62 10.323,45.88 10.661,46.109C11.005,46.339 11.37,46.531 11.75,46.688C12.13,46.844 12.521,46.964 12.927,47.047C13.333,47.125 13.74,47.167 14.151,47.167Z" style="fill:rgb(141,198,63);fill-opacity:0.78;"/>
            <path d="M11.016,25.313C11.016,25.667 10.984,26.021 10.911,26.37C10.844,26.719 10.74,27.057 10.604,27.391C10.469,27.719 10.297,28.031 10.099,28.328C9.901,28.625 9.677,28.896 9.422,29.151C9.172,29.401 8.896,29.63 8.599,29.828C8.302,30.026 7.99,30.193 7.656,30.328C7.328,30.464 6.984,30.568 6.635,30.635C6.286,30.708 5.932,30.74 5.573,30.74C5.219,30.74 4.865,30.708 4.51,30.635C4.161,30.568 3.823,30.464 3.49,30.328C3.161,30.193 2.849,30.026 2.552,29.828C2.255,29.63 1.979,29.401 1.724,29.151C1.474,28.896 1.245,28.625 1.047,28.328C0.849,28.031 0.682,27.719 0.547,27.391C0.406,27.057 0.307,26.719 0.234,26.37C0.167,26.021 0.13,25.667 0.13,25.313C0.13,24.953 0.167,24.599 0.234,24.25C0.307,23.901 0.406,23.563 0.547,23.234C0.682,22.901 0.849,22.589 1.047,22.292C1.245,21.995 1.474,21.724 1.724,21.469C1.979,21.219 2.255,20.995 2.552,20.797C2.849,20.594 3.161,20.427 3.49,20.292C3.823,20.156 4.161,20.052 4.51,19.984C4.865,19.911 5.219,19.88 5.573,19.88C5.932,19.88 6.286,19.911 6.635,19.984C6.984,20.052 7.328,20.156 7.656,20.292C7.99,20.427 8.302,20.594 8.599,20.797C8.896,20.995 9.172,21.219 9.422,21.469C9.677,21.724 9.901,21.995 10.099,22.292C10.297,22.589 10.469,22.901 10.604,23.234C10.74,23.563 10.844,23.901 10.911,24.25C10.984,24.599 11.016,24.953 11.016,25.313Z" style="fill:rgb(255,217,0);fill-opacity:0.78;fill-rule:nonzero;"/>
            <path d="M17.073,15.359C17.75,15.359 18.396,15.229 19.021,14.974C19.641,14.719 20.193,14.349 20.672,13.875C21.146,13.401 21.516,12.854 21.771,12.229C22.031,11.609 22.161,10.964 22.161,10.292C22.161,9.62 22.031,8.974 21.776,8.349C21.516,7.729 21.151,7.182 20.672,6.703C20.198,6.229 19.646,5.865 19.026,5.604C18.401,5.349 17.755,5.219 17.078,5.219C16.406,5.219 15.755,5.344 15.135,5.604C14.51,5.859 13.964,6.229 13.484,6.703C13.01,7.177 12.641,7.724 12.385,8.349C12.125,8.969 11.995,9.615 11.995,10.286C12,10.958 12.125,11.604 12.385,12.229C12.641,12.849 13.01,13.396 13.484,13.87C13.964,14.344 14.51,14.714 15.13,14.969C15.755,15.229 16.401,15.359 17.073,15.359Z" style="fill:rgb(0,148,68);fill-opacity:0.78;"/>
            <path d="M18.802,27.995C19.245,27.995 19.672,27.911 20.083,27.74C20.495,27.573 20.859,27.328 21.172,27.016C21.49,26.703 21.729,26.339 21.901,25.927C22.073,25.521 22.156,25.094 22.156,24.646C22.156,24.203 22.073,23.776 21.901,23.365C21.729,22.953 21.49,22.594 21.172,22.281C20.859,21.964 20.495,21.724 20.083,21.552C19.672,21.385 19.245,21.297 18.802,21.297C18.354,21.297 17.927,21.385 17.516,21.552C17.104,21.724 16.74,21.964 16.427,22.281C16.109,22.594 15.87,22.953 15.698,23.365C15.526,23.776 15.443,24.203 15.443,24.646C15.443,25.089 15.531,25.516 15.698,25.927C15.87,26.339 16.115,26.698 16.427,27.016C16.745,27.328 17.104,27.568 17.516,27.74C17.927,27.911 18.354,27.995 18.802,27.995Z" style="fill:rgb(86,186,72);fill-opacity:0.78;"/>
            <path d="M25.802,6.698C26.245,6.698 26.672,6.615 27.083,6.443C27.495,6.276 27.859,6.031 28.177,5.719C28.49,5.406 28.734,5.042 28.901,4.63C29.073,4.219 29.156,3.792 29.156,3.349C29.156,2.906 29.073,2.479 28.901,2.068C28.734,1.656 28.49,1.297 28.177,0.979C27.859,0.667 27.495,0.427 27.083,0.255C26.672,0.083 26.245,0 25.802,0C25.354,0 24.927,0.083 24.516,0.255C24.104,0.427 23.74,0.667 23.427,0.979C23.115,1.297 22.87,1.656 22.698,2.068C22.531,2.479 22.443,2.906 22.443,3.349C22.443,3.792 22.531,4.219 22.703,4.63C22.875,5.042 23.115,5.401 23.427,5.714C23.745,6.031 24.109,6.271 24.516,6.443C24.927,6.615 25.354,6.698 25.802,6.698Z" style="fill:rgb(251,173,23);fill-opacity:0.78;"/>
            <path d="M5.182,14.167C5.521,14.161 5.844,14.099 6.151,13.969C6.464,13.839 6.734,13.656 6.974,13.417C7.208,13.177 7.396,12.901 7.521,12.594C7.651,12.281 7.714,11.958 7.714,11.62C7.708,11.286 7.646,10.964 7.516,10.651C7.385,10.344 7.203,10.068 6.964,9.833C6.724,9.594 6.448,9.411 6.135,9.286C5.828,9.156 5.505,9.094 5.167,9.094C4.828,9.094 4.505,9.161 4.193,9.286C3.885,9.417 3.609,9.599 3.37,9.839C3.135,10.078 2.953,10.349 2.823,10.661C2.693,10.969 2.63,11.292 2.63,11.63C2.63,11.969 2.698,12.292 2.828,12.599C2.958,12.911 3.141,13.188 3.38,13.422C3.62,13.661 3.896,13.844 4.208,13.974C4.521,14.104 4.844,14.167 5.182,14.167Z" style="fill:rgb(241,92,34);fill-opacity:0.78;"/>
            <path d="M65.583,40.031C65.583,40.724 65.547,41.417 65.479,42.104C65.411,42.797 65.313,43.484 65.177,44.161C65.036,44.844 64.87,45.516 64.667,46.177C64.469,46.844 64.234,47.495 63.969,48.135C63.698,48.776 63.401,49.406 63.073,50.016C62.75,50.63 62.391,51.224 62.005,51.802C61.62,52.375 61.203,52.932 60.76,53.469C60.323,54.005 59.854,54.521 59.365,55.01C58.87,55.5 58.359,55.964 57.818,56.406C57.281,56.844 56.724,57.26 56.146,57.646C55.568,58.031 54.974,58.385 54.359,58.714C53.745,59.042 53.12,59.339 52.474,59.604C51.833,59.87 51.177,60.099 50.516,60.302C49.849,60.505 49.172,60.672 48.49,60.807C47.807,60.943 47.125,61.047 46.432,61.115C45.74,61.182 45.047,61.214 44.349,61.214C43.656,61.214 42.958,61.182 42.266,61.115C41.578,61.047 40.891,60.943 40.208,60.807C39.526,60.672 38.849,60.505 38.188,60.302C37.521,60.099 36.865,59.87 36.224,59.604C35.583,59.339 34.953,59.042 34.339,58.714C33.729,58.385 33.13,58.031 32.552,57.646C31.974,57.26 31.417,56.844 30.88,56.406C30.344,55.964 29.828,55.5 29.333,55.01C28.844,54.521 28.375,54.005 27.938,53.469C27.495,52.932 27.083,52.375 26.693,51.802C26.307,51.224 25.953,50.63 25.625,50.016C25.297,49.406 25,48.776 24.734,48.135C24.469,47.495 24.234,46.844 24.031,46.177C23.828,45.516 23.661,44.844 23.526,44.161C23.391,43.484 23.286,42.797 23.219,42.104C23.151,41.417 23.115,40.724 23.115,40.031C23.115,39.333 23.151,38.646 23.219,37.953C23.286,37.26 23.391,36.578 23.526,35.896C23.661,35.214 23.828,34.542 24.031,33.88C24.234,33.214 24.469,32.563 24.734,31.922C25,31.281 25.297,30.656 25.625,30.042C25.953,29.432 26.307,28.839 26.693,28.26C27.083,27.682 27.495,27.125 27.938,26.589C28.375,26.052 28.844,25.542 29.333,25.047C29.828,24.557 30.344,24.094 30.88,23.651C31.417,23.214 31.974,22.802 32.552,22.417C33.13,22.031 33.729,21.672 34.339,21.344C34.953,21.021 35.583,20.724 36.224,20.458C36.865,20.193 37.521,19.958 38.188,19.755C38.849,19.557 39.526,19.385 40.208,19.25C40.891,19.115 41.578,19.016 42.266,18.948C42.958,18.88 43.656,18.844 44.349,18.844C45.047,18.844 45.74,18.88 46.432,18.948C47.125,19.016 47.807,19.115 48.49,19.25C49.172,19.385 49.849,19.557 50.516,19.755C51.177,19.958 51.833,20.193 52.474,20.458C53.12,20.724 53.745,21.021 54.359,21.344C54.974,21.672 55.568,22.031 56.146,22.417C56.724,22.802 57.281,23.214 57.818,23.651C58.359,24.094 58.87,24.557 59.365,25.047C59.854,25.542 60.323,26.052 60.76,26.589C61.203,27.125 61.62,27.682 62.005,28.26C62.391,28.839 62.75,29.432 63.073,30.042C63.401,30.656 63.698,31.281 63.969,31.922C64.234,32.563 64.469,33.214 64.667,33.88C64.87,34.542 65.036,35.214 65.177,35.896C65.313,36.578 65.411,37.26 65.479,37.953C65.547,38.646 65.583,39.333 65.583,40.031Z" style="fill:rgb(251,173,23);fill-opacity:0.78;fill-rule:nonzero;"/>
            <path d="M56.078,7.964C66.255,10.057 74.781,15.141 79.807,22.458C79.719,23.078 79.594,23.688 79.432,24.292C79.271,24.901 79.073,25.49 78.833,26.073C78.599,26.651 78.328,27.214 78.021,27.76C77.714,28.307 77.375,28.833 77.005,29.339C76.635,29.844 76.234,30.323 75.802,30.776C75.37,31.229 74.911,31.656 74.427,32.057C73.943,32.453 73.438,32.823 72.906,33.156C72.375,33.49 71.828,33.792 71.26,34.063C70.693,34.328 70.115,34.563 69.516,34.755C68.922,34.953 68.313,35.109 67.698,35.229C67.083,35.349 66.464,35.432 65.839,35.479C65.208,35.521 64.583,35.526 63.958,35.49C63.333,35.458 62.708,35.385 62.094,35.276C61.474,35.167 60.865,35.016 60.266,34.828C59.667,34.646 59.083,34.422 58.51,34.161C57.938,33.906 57.385,33.615 56.849,33.286C56.318,32.958 55.802,32.599 55.313,32.208C54.823,31.818 54.359,31.401 53.917,30.953C53.479,30.505 53.073,30.031 52.693,29.531C52.313,29.036 51.964,28.516 51.651,27.974C51.333,27.432 51.057,26.875 50.807,26.297C50.563,25.719 50.354,25.13 50.182,24.531C50.01,23.927 49.875,23.318 49.781,22.698C49.682,22.078 49.625,21.458 49.604,20.833C49.589,20.208 49.609,19.583 49.667,18.958C49.724,18.333 49.823,17.719 49.958,17.104C50.094,16.495 50.266,15.896 50.474,15.307C50.682,14.714 50.932,14.141 51.214,13.578C51.495,13.021 51.807,12.479 52.156,11.958C52.505,11.438 52.885,10.943 53.297,10.469C53.703,9.995 54.141,9.547 54.609,9.13C55.073,8.708 55.563,8.323 56.078,7.964Z" style="fill:rgb(236,0,139);fill-opacity:0.78;"/>
            <path d="M37.198,30.745C38.036,30.745 38.865,30.667 39.682,30.5C40.5,30.339 41.297,30.099 42.068,29.781C42.839,29.464 43.573,29.073 44.266,28.609C44.958,28.146 45.604,27.62 46.193,27.031C46.786,26.443 47.313,25.802 47.776,25.109C48.24,24.417 48.63,23.688 48.953,22.917C49.271,22.146 49.51,21.354 49.677,20.536C49.839,19.719 49.922,18.891 49.922,18.057C49.922,17.224 49.839,16.401 49.677,15.583C49.516,14.766 49.271,13.974 48.953,13.203C48.635,12.432 48.245,11.703 47.781,11.01C47.318,10.318 46.786,9.677 46.198,9.089C45.609,8.5 44.964,7.969 44.271,7.51C43.578,7.047 42.844,6.656 42.073,6.333C41.302,6.016 40.505,5.776 39.688,5.615C38.87,5.448 38.042,5.37 37.203,5.37C36.37,5.37 35.542,5.448 34.724,5.615C33.906,5.776 33.109,6.016 32.339,6.333C31.568,6.651 30.833,7.042 30.141,7.505C29.448,7.969 28.802,8.495 28.214,9.083C27.62,9.672 27.094,10.313 26.63,11.005C26.167,11.698 25.776,12.432 25.458,13.203C25.135,13.969 24.896,14.766 24.734,15.583C24.568,16.401 24.49,17.224 24.49,18.057C24.49,18.891 24.573,19.714 24.734,20.531C24.901,21.349 25.141,22.141 25.464,22.906C25.781,23.677 26.172,24.406 26.635,25.099C27.099,25.792 27.63,26.432 28.219,27.021C28.807,27.609 29.448,28.135 30.141,28.599C30.839,29.063 31.568,29.453 32.339,29.771C33.109,30.094 33.906,30.333 34.724,30.495C35.542,30.661 36.365,30.745 37.198,30.745Z" style="fill:rgb(86,186,72);fill-opacity:0.78;"/>
        </g>
    </g>
</svg>
